<?xml version="1.0" encoding="UTF-8" standalone="no"?>
<!DOCTYPE svg PUBLIC "-//W3C//DTD SVG 1.1//EN" "http://www.w3.org/Graphics/SVG/1.1/DTD/svg11.dtd">
<svg width="100%" height="100%" viewBox="0 0 785 299" version="1.1" xmlns="http://www.w3.org/2000/svg" xmlns:xlink="http://www.w3.org/1999/xlink" xml:space="preserve" xmlns:serif="http://www.serif.com/" style="fill-rule:evenodd;clip-rule:evenodd;stroke-linecap:round;stroke-linejoin:round;stroke-miterlimit:1.5;">
    <path d="M498.271,163.389L498.271,124.829L516.248,124.829L516.248,89.023L571.334,144.109L516.248,199.195L516.248,163.389L498.271,163.389Z" style="fill:rgb(2,200,255);"/>
    <path d="M213.645,163.389L213.645,124.829L231.623,124.829L231.623,89.023L286.709,144.109L231.623,199.195L231.623,163.389L213.645,163.389Z" style="fill:rgb(2,200,255);"/>
    <g>
        <g>
            <path d="M2.083,236.881L2.083,192.71L213.645,192.71L213.645,236.881C213.645,264.064 166.246,286.134 107.864,286.134C49.482,286.134 2.083,264.064 2.083,236.881Z" style="fill:url(#_Linear1);stroke:black;stroke-width:4.17px;"/>
            <ellipse cx="107.864" cy="193.362" rx="105.781" ry="49.253" style="fill:url(#_Radial2);stroke:black;stroke-width:4.17px;"/>
        </g>
        <g>
            <path d="M2.083,165.868L2.083,121.697L213.645,121.697L213.645,165.868C213.645,193.052 166.246,215.121 107.864,215.121C49.482,215.121 2.083,193.052 2.083,165.868Z" style="fill:url(#_Linear3);stroke:black;stroke-width:4.17px;"/>
            <ellipse cx="107.864" cy="122.349" rx="105.781" ry="49.253" style="fill:url(#_Radial4);stroke:black;stroke-width:4.17px;"/>
        </g>
        <g>
            <path d="M2.083,94.856L2.083,50.684L213.645,50.684L213.645,94.856C213.645,122.039 166.246,144.109 107.864,144.109C49.482,144.109 2.083,122.039 2.083,94.856Z" style="fill:url(#_Linear5);stroke:black;stroke-width:4.17px;"/>
            <ellipse cx="107.864" cy="51.336" rx="105.781" ry="49.253" style="fill:rgb(51,255,85);stroke:black;stroke-width:4.17px;"/>
        </g>
    </g>
    <g>
        <path d="M571.334,247.173L571.334,203.002L782.896,203.002L782.896,247.173C782.896,274.357 735.497,296.426 677.115,296.426C618.733,296.426 571.334,274.357 571.334,247.173Z" style="fill:url(#_Linear6);stroke:black;stroke-width:4.17px;"/>
        <ellipse cx="677.115" cy="203.654" rx="105.781" ry="49.253" style="fill:url(#_Linear7);stroke:black;stroke-width:4.17px;"/>
    </g>
    <g>
        <g>
            <path d="M571.334,176.161L571.334,131.99L782.896,131.99L782.896,176.161C782.896,203.344 735.497,225.414 677.115,225.414C618.733,225.414 571.334,203.344 571.334,176.161Z" style="fill:url(#_Linear8);stroke:black;stroke-width:4.17px;"/>
            <ellipse cx="677.115" cy="132.642" rx="105.781" ry="49.253" style="fill:url(#_Linear9);stroke:black;stroke-width:4.17px;"/>
        </g>
        <g>
            <path d="M571.334,105.148L571.334,60.977L782.896,60.977L782.896,105.148C782.896,132.332 735.497,154.401 677.115,154.401C618.733,154.401 571.334,132.332 571.334,105.148Z" style="fill:url(#_Linear10);stroke:black;stroke-width:4.17px;"/>
            <ellipse cx="677.115" cy="61.629" rx="105.781" ry="49.253" style="fill:rgb(255,228,51);stroke:black;stroke-width:4.17px;"/>
        </g>
    </g>
    <g>
        <g>
            <path d="M286.709,201.375L286.709,157.203L498.271,157.203L498.271,201.375C498.271,228.558 450.872,250.628 392.49,250.628C334.108,250.628 286.709,228.558 286.709,201.375Z" style="fill:url(#_Linear11);stroke:black;stroke-width:4.17px;"/>
            <ellipse cx="392.49" cy="157.855" rx="105.781" ry="49.253" style="fill:url(#_Radial12);stroke:black;stroke-width:4.17px;"/>
        </g>
        <g>
            <path d="M286.709,130.362L286.709,86.191L498.271,86.191L498.271,130.362C498.271,157.545 450.872,179.615 392.49,179.615C334.108,179.615 286.709,157.545 286.709,130.362Z" style="fill:url(#_Linear13);stroke:black;stroke-width:4.17px;"/>
            <ellipse cx="392.49" cy="86.843" rx="105.781" ry="49.253" style="fill:url(#_Linear14);stroke:black;stroke-width:4.17px;"/>
        </g>
    </g>
    <defs>
        <linearGradient id="_Linear1" x1="0" y1="0" x2="1" y2="0" gradientUnits="userSpaceOnUse" gradientTransform="matrix(81.8283,-6.10621,6.10621,81.8283,58.1076,258.997)"><stop offset="0" style="stop-color:rgb(51,255,85);stop-opacity:1"/><stop offset="1" style="stop-color:rgb(0,194,32);stop-opacity:1"/></linearGradient>
        <radialGradient id="_Radial2" cx="0" cy="0" r="1" gradientUnits="userSpaceOnUse" gradientTransform="matrix(-73.2087,68.1668,-68.1668,-73.2087,152.816,185.804)"><stop offset="0" style="stop-color:rgb(0,73,12);stop-opacity:1"/><stop offset="1" style="stop-color:rgb(0,155,26);stop-opacity:1"/></radialGradient>
        <linearGradient id="_Linear3" x1="0" y1="0" x2="1" y2="0" gradientUnits="userSpaceOnUse" gradientTransform="matrix(81.8283,-6.10621,6.10621,81.8283,58.1076,187.984)"><stop offset="0" style="stop-color:rgb(51,255,85);stop-opacity:1"/><stop offset="1" style="stop-color:rgb(0,194,32);stop-opacity:1"/></linearGradient>
        <radialGradient id="_Radial4" cx="0" cy="0" r="1" gradientUnits="userSpaceOnUse" gradientTransform="matrix(-73.2087,68.1668,-68.1668,-73.2087,152.816,114.791)"><stop offset="0" style="stop-color:rgb(0,73,12);stop-opacity:1"/><stop offset="1" style="stop-color:rgb(0,155,26);stop-opacity:1"/></radialGradient>
        <linearGradient id="_Linear5" x1="0" y1="0" x2="1" y2="0" gradientUnits="userSpaceOnUse" gradientTransform="matrix(81.8283,-6.10621,6.10621,81.8283,58.1076,116.972)"><stop offset="0" style="stop-color:rgb(51,255,85);stop-opacity:1"/><stop offset="1" style="stop-color:rgb(0,194,32);stop-opacity:1"/></linearGradient>
        <linearGradient id="_Linear6" x1="0" y1="0" x2="1" y2="0" gradientUnits="userSpaceOnUse" gradientTransform="matrix(116.93,-48.6011,48.6011,116.93,614.723,274.015)"><stop offset="0" style="stop-color:rgb(255,228,51);stop-opacity:1"/><stop offset="1" style="stop-color:rgb(194,168,0);stop-opacity:1"/></linearGradient>
        <linearGradient id="_Linear7" x1="0" y1="0" x2="1" y2="0" gradientUnits="userSpaceOnUse" gradientTransform="matrix(61.4536,-46.2328,46.2328,61.4536,649.666,236.67)"><stop offset="0" style="stop-color:rgb(170,147,0);stop-opacity:1"/><stop offset="1" style="stop-color:rgb(85,73,0);stop-opacity:1"/></linearGradient>
        <linearGradient id="_Linear8" x1="0" y1="0" x2="1" y2="0" gradientUnits="userSpaceOnUse" gradientTransform="matrix(60.4254,-33.4544,33.4544,60.4254,634.229,203.654)"><stop offset="0" style="stop-color:rgb(224,51,255);stop-opacity:1"/><stop offset="1" style="stop-color:rgb(165,0,194);stop-opacity:1"/></linearGradient>
        <linearGradient id="_Linear9" x1="0" y1="0" x2="1" y2="0" gradientUnits="userSpaceOnUse" gradientTransform="matrix(-109.257,73.6358,-73.6358,-109.257,727.094,89.2298)"><stop offset="0" style="stop-color:rgb(62,0,73);stop-opacity:1"/><stop offset="1" style="stop-color:rgb(161,26,185);stop-opacity:1"/></linearGradient>
        <linearGradient id="_Linear10" x1="0" y1="0" x2="1" y2="0" gradientUnits="userSpaceOnUse" gradientTransform="matrix(116.93,-48.6011,48.6011,116.93,614.723,131.99)"><stop offset="0" style="stop-color:rgb(255,228,51);stop-opacity:1"/><stop offset="1" style="stop-color:rgb(194,168,0);stop-opacity:1"/></linearGradient>
        <linearGradient id="_Linear11" x1="0" y1="0" x2="1" y2="0" gradientUnits="userSpaceOnUse" gradientTransform="matrix(81.8283,-6.10621,6.10621,81.8283,342.733,223.491)"><stop offset="0" style="stop-color:rgb(51,255,85);stop-opacity:1"/><stop offset="1" style="stop-color:rgb(0,194,32);stop-opacity:1"/></linearGradient>
        <radialGradient id="_Radial12" cx="0" cy="0" r="1" gradientUnits="userSpaceOnUse" gradientTransform="matrix(-73.2087,68.1668,-68.1668,-73.2087,437.442,150.298)"><stop offset="0" style="stop-color:rgb(0,73,12);stop-opacity:1"/><stop offset="1" style="stop-color:rgb(0,155,26);stop-opacity:1"/></radialGradient>
        <linearGradient id="_Linear13" x1="0" y1="0" x2="1" y2="0" gradientUnits="userSpaceOnUse" gradientTransform="matrix(60.4254,-33.4544,33.4544,60.4254,349.604,157.855)"><stop offset="0" style="stop-color:rgb(224,51,255);stop-opacity:1"/><stop offset="1" style="stop-color:rgb(165,0,194);stop-opacity:1"/></linearGradient>
        <linearGradient id="_Linear14" x1="0" y1="0" x2="1" y2="0" gradientUnits="userSpaceOnUse" gradientTransform="matrix(-109.257,73.6358,-73.6358,-109.257,442.469,43.431)"><stop offset="0" style="stop-color:rgb(62,0,73);stop-opacity:1"/><stop offset="1" style="stop-color:rgb(161,26,185);stop-opacity:1"/></linearGradient>
    </defs>
</svg>
