<?xml version="1.0" encoding="UTF-8" standalone="no"?>
<!DOCTYPE svg PUBLIC "-//W3C//DTD SVG 1.1//EN" "http://www.w3.org/Graphics/SVG/1.1/DTD/svg11.dtd">
<svg width="100%" height="100%" viewBox="0 0 785 299" version="1.1" xmlns="http://www.w3.org/2000/svg" xmlns:xlink="http://www.w3.org/1999/xlink" xml:space="preserve" xmlns:serif="http://www.serif.com/" style="fill-rule:evenodd;clip-rule:evenodd;stroke-linecap:round;stroke-linejoin:round;stroke-miterlimit:1.5;">
    <g transform="matrix(1,0,0,1,-127.504,-229.599)">
        <g transform="matrix(3.35991,0,0,4.79786,-5132.05,-3024.01)">
            <path d="M1713.68,712.192L1713.68,704.155L1719.04,704.155L1719.04,696.692L1735.43,708.173L1719.04,719.655L1719.04,712.192L1713.68,712.192Z" style="fill:rgb(2,200,255);"/>
        </g>
        <g transform="matrix(3.35991,0,0,4.79786,-5416.67,-3024.01)">
            <path d="M1713.68,712.192L1713.68,704.155L1719.04,704.155L1719.04,696.692L1735.43,708.173L1719.04,719.655L1719.04,712.192L1713.68,712.192Z" style="fill:rgb(2,200,255);"/>
        </g>
        <g transform="matrix(1,0,0,1,-1283.2,-663.113)">
            <g transform="matrix(0.503364,0,0,0.503364,799.203,335.379)">
                <g transform="matrix(1,0,0,1,60.9794,271.708)">
                    <path d="M1158,1306.11L1158,1218.35L1578.29,1218.35L1578.29,1306.11C1578.29,1360.11 1484.13,1403.95 1368.14,1403.95C1252.16,1403.95 1158,1360.11 1158,1306.11Z" style="fill:url(#_Linear1);stroke:black;stroke-width:8.28px;"/>
                </g>
                <g transform="matrix(1,0,0,1,60.9794,185.252)">
                    <ellipse cx="1368.14" cy="1306.11" rx="210.148" ry="97.848" style="fill:url(#_Radial2);stroke:black;stroke-width:8.28px;"/>
                </g>
            </g>
            <g transform="matrix(0.503364,0,0,0.503364,799.203,264.366)">
                <g transform="matrix(1,0,0,1,60.9794,271.708)">
                    <path d="M1158,1306.11L1158,1218.35L1578.29,1218.35L1578.29,1306.11C1578.29,1360.11 1484.13,1403.95 1368.14,1403.95C1252.16,1403.95 1158,1360.11 1158,1306.11Z" style="fill:url(#_Linear3);stroke:black;stroke-width:8.28px;"/>
                </g>
                <g transform="matrix(1,0,0,1,60.9794,185.252)">
                    <ellipse cx="1368.14" cy="1306.11" rx="210.148" ry="97.848" style="fill:url(#_Radial4);stroke:black;stroke-width:8.28px;"/>
                </g>
            </g>
            <g transform="matrix(0.503364,0,0,0.503364,799.203,193.354)">
                <g transform="matrix(1,0,0,1,60.9794,271.708)">
                    <path d="M1158,1306.11L1158,1218.35L1578.29,1218.35L1578.29,1306.11C1578.29,1360.11 1484.13,1403.95 1368.14,1403.95C1252.16,1403.95 1158,1360.11 1158,1306.11Z" style="fill:url(#_Linear5);stroke:black;stroke-width:8.28px;"/>
                </g>
                <g transform="matrix(1,0,0,1,60.9794,185.252)">
                    <ellipse cx="1368.14" cy="1306.11" rx="210.148" ry="97.848" style="fill:rgb(51,255,85);stroke:black;stroke-width:8.28px;"/>
                </g>
            </g>
        </g>
        <g transform="matrix(0.503364,0,0,0.503364,85.2506,-317.442)">
            <g transform="matrix(1,0,0,1,60.9794,271.708)">
                <path d="M1158,1306.11L1158,1218.35L1578.29,1218.35L1578.29,1306.11C1578.29,1360.11 1484.13,1403.95 1368.14,1403.95C1252.16,1403.95 1158,1360.11 1158,1306.11Z" style="fill:url(#_Linear6);stroke:black;stroke-width:8.28px;"/>
            </g>
            <g transform="matrix(1,0,0,1,60.9794,185.252)">
                <ellipse cx="1368.14" cy="1306.11" rx="210.148" ry="97.848" style="fill:url(#_Linear7);stroke:black;stroke-width:8.28px;"/>
            </g>
        </g>
        <g transform="matrix(1,0,0,1,-999.373,-652.821)">
            <g transform="matrix(0.503364,0,0,0.503364,1084.62,264.366)">
                <g transform="matrix(1,0,0,1,60.9794,271.708)">
                    <path d="M1158,1306.11L1158,1218.35L1578.29,1218.35L1578.29,1306.11C1578.29,1360.11 1484.13,1403.95 1368.14,1403.95C1252.16,1403.95 1158,1360.11 1158,1306.11Z" style="fill:url(#_Linear8);stroke:black;stroke-width:8.28px;"/>
                </g>
                <g transform="matrix(1,0,0,1,60.9794,185.252)">
                    <ellipse cx="1368.14" cy="1306.11" rx="210.148" ry="97.848" style="fill:url(#_Linear9);stroke:black;stroke-width:8.28px;"/>
                </g>
            </g>
            <g transform="matrix(0.503364,0,0,0.503364,1084.62,193.354)">
                <g transform="matrix(1,0,0,1,60.9794,271.708)">
                    <path d="M1158,1306.11L1158,1218.35L1578.29,1218.35L1578.29,1306.11C1578.29,1360.11 1484.13,1403.95 1368.14,1403.95C1252.16,1403.95 1158,1360.11 1158,1306.11Z" style="fill:url(#_Linear10);stroke:black;stroke-width:8.28px;"/>
                </g>
                <g transform="matrix(1,0,0,1,60.9794,185.252)">
                    <ellipse cx="1368.14" cy="1306.11" rx="210.148" ry="97.848" style="fill:rgb(255,228,51);stroke:black;stroke-width:8.28px;"/>
                </g>
            </g>
        </g>
        <g transform="matrix(1,0,0,1,-1604.1,-690.359)">
            <g transform="matrix(0.503364,0,0,0.503364,1404.73,327.118)">
                <g transform="matrix(1,0,0,1,60.9794,271.708)">
                    <path d="M1158,1306.11L1158,1218.35L1578.29,1218.35L1578.29,1306.11C1578.29,1360.11 1484.13,1403.95 1368.14,1403.95C1252.16,1403.95 1158,1360.11 1158,1306.11Z" style="fill:url(#_Linear11);stroke:black;stroke-width:8.28px;"/>
                </g>
                <g transform="matrix(1,0,0,1,60.9794,185.252)">
                    <ellipse cx="1368.14" cy="1306.11" rx="210.148" ry="97.848" style="fill:url(#_Radial12);stroke:black;stroke-width:8.28px;"/>
                </g>
            </g>
            <g transform="matrix(0.503364,0,0,0.503364,1404.73,256.106)">
                <g transform="matrix(1,0,0,1,60.9794,271.708)">
                    <path d="M1158,1306.11L1158,1218.35L1578.29,1218.35L1578.29,1306.11C1578.29,1360.11 1484.13,1403.95 1368.14,1403.95C1252.16,1403.95 1158,1360.11 1158,1306.11Z" style="fill:url(#_Linear13);stroke:black;stroke-width:8.28px;"/>
                </g>
                <g transform="matrix(1,0,0,1,60.9794,185.252)">
                    <ellipse cx="1368.14" cy="1306.11" rx="210.148" ry="97.848" style="fill:rgb(217,2,255);stroke:black;stroke-width:8.28px;"/>
                </g>
            </g>
        </g>
    </g>
    <defs>
        <linearGradient id="_Linear1" x1="0" y1="0" x2="1" y2="0" gradientUnits="userSpaceOnUse" gradientTransform="matrix(162.563,-12.1308,12.1308,162.563,1269.3,1350.04)"><stop offset="0" style="stop-color:rgb(51,255,85);stop-opacity:1"/><stop offset="1" style="stop-color:rgb(0,194,32);stop-opacity:1"/></linearGradient>
        <radialGradient id="_Radial2" cx="0" cy="0" r="1" gradientUnits="userSpaceOnUse" gradientTransform="matrix(-145.439,135.423,-135.423,-145.439,1457.45,1291.09)"><stop offset="0" style="stop-color:rgb(0,73,12);stop-opacity:1"/><stop offset="1" style="stop-color:rgb(0,155,26);stop-opacity:1"/></radialGradient>
        <linearGradient id="_Linear3" x1="0" y1="0" x2="1" y2="0" gradientUnits="userSpaceOnUse" gradientTransform="matrix(162.563,-12.1308,12.1308,162.563,1269.3,1350.04)"><stop offset="0" style="stop-color:rgb(51,255,85);stop-opacity:1"/><stop offset="1" style="stop-color:rgb(0,194,32);stop-opacity:1"/></linearGradient>
        <radialGradient id="_Radial4" cx="0" cy="0" r="1" gradientUnits="userSpaceOnUse" gradientTransform="matrix(-145.439,135.423,-135.423,-145.439,1457.45,1291.09)"><stop offset="0" style="stop-color:rgb(0,73,12);stop-opacity:1"/><stop offset="1" style="stop-color:rgb(0,155,26);stop-opacity:1"/></radialGradient>
        <linearGradient id="_Linear5" x1="0" y1="0" x2="1" y2="0" gradientUnits="userSpaceOnUse" gradientTransform="matrix(162.563,-12.1308,12.1308,162.563,1269.3,1350.04)"><stop offset="0" style="stop-color:rgb(51,255,85);stop-opacity:1"/><stop offset="1" style="stop-color:rgb(0,194,32);stop-opacity:1"/></linearGradient>
        <linearGradient id="_Linear6" x1="0" y1="0" x2="1" y2="0" gradientUnits="userSpaceOnUse" gradientTransform="matrix(232.296,-96.5527,96.5527,232.296,1244.19,1359.43)"><stop offset="0" style="stop-color:rgb(255,228,51);stop-opacity:1"/><stop offset="1" style="stop-color:rgb(194,168,0);stop-opacity:1"/></linearGradient>
        <linearGradient id="_Linear7" x1="0" y1="0" x2="1" y2="0" gradientUnits="userSpaceOnUse" gradientTransform="matrix(122.086,-91.8478,91.8478,122.086,1313.61,1371.7)"><stop offset="0" style="stop-color:rgb(170,147,0);stop-opacity:1"/><stop offset="1" style="stop-color:rgb(85,73,0);stop-opacity:1"/></linearGradient>
        <linearGradient id="_Linear8" x1="0" y1="0" x2="1" y2="0" gradientUnits="userSpaceOnUse" gradientTransform="matrix(120.043,-66.4616,66.4616,120.043,1282.94,1360.73)"><stop offset="0" style="stop-color:rgb(224,51,255);stop-opacity:1"/><stop offset="1" style="stop-color:rgb(165,0,194);stop-opacity:1"/></linearGradient>
        <linearGradient id="_Linear9" x1="0" y1="0" x2="1" y2="0" gradientUnits="userSpaceOnUse" gradientTransform="matrix(-217.055,146.287,-146.287,-217.055,1467.43,1219.86)"><stop offset="0" style="stop-color:rgb(62,0,73);stop-opacity:1"/><stop offset="1" style="stop-color:rgb(161,26,185);stop-opacity:1"/></linearGradient>
        <linearGradient id="_Linear10" x1="0" y1="0" x2="1" y2="0" gradientUnits="userSpaceOnUse" gradientTransform="matrix(232.296,-96.5527,96.5527,232.296,1244.19,1359.43)"><stop offset="0" style="stop-color:rgb(255,228,51);stop-opacity:1"/><stop offset="1" style="stop-color:rgb(194,168,0);stop-opacity:1"/></linearGradient>
        <linearGradient id="_Linear11" x1="0" y1="0" x2="1" y2="0" gradientUnits="userSpaceOnUse" gradientTransform="matrix(162.563,-12.1308,12.1308,162.563,1269.3,1350.04)"><stop offset="0" style="stop-color:rgb(51,255,85);stop-opacity:1"/><stop offset="1" style="stop-color:rgb(0,194,32);stop-opacity:1"/></linearGradient>
        <radialGradient id="_Radial12" cx="0" cy="0" r="1" gradientUnits="userSpaceOnUse" gradientTransform="matrix(-145.439,135.423,-135.423,-145.439,1457.45,1291.09)"><stop offset="0" style="stop-color:rgb(0,73,12);stop-opacity:1"/><stop offset="1" style="stop-color:rgb(0,155,26);stop-opacity:1"/></radialGradient>
        <linearGradient id="_Linear13" x1="0" y1="0" x2="1" y2="0" gradientUnits="userSpaceOnUse" gradientTransform="matrix(120.043,-66.4616,66.4616,120.043,1282.94,1360.73)"><stop offset="0" style="stop-color:rgb(224,51,255);stop-opacity:1"/><stop offset="1" style="stop-color:rgb(165,0,194);stop-opacity:1"/></linearGradient>
    </defs>
</svg>
